<svg xmlns="http://www.w3.org/2000/svg" width="24" height="18.545" viewBox="0 0 24 18.545">
  <defs>
    <style>
      .cls-1 {
        fill: #ffff;
      }
    </style>
  </defs>
  <path id="ic_import_contacts_24px" class="cls-1" d="M22.818,5.045A12.878,12.878,0,0,0,19,4.5a10.146,10.146,0,0,0-6,1.636A10.146,10.146,0,0,0,7,4.5,10.146,10.146,0,0,0,1,6.136V22.118a.587.587,0,0,0,.545.545c.109,0,.164-.055.273-.055A13.315,13.315,0,0,1,7,21.409a10.146,10.146,0,0,1,6,1.636,13.14,13.14,0,0,1,6-1.636,11.1,11.1,0,0,1,5.182,1.145.492.492,0,0,0,.273.055A.587.587,0,0,0,25,22.064V6.136A7.441,7.441,0,0,0,22.818,5.045Zm0,14.727A12.677,12.677,0,0,0,19,19.227a13.14,13.14,0,0,0-6,1.636V8.318a13.14,13.14,0,0,1,6-1.636,12.677,12.677,0,0,1,3.818.545Z" transform="translate(-1 -4.5)"/>
</svg>
